<svg xmlns="http://www.w3.org/2000/svg" width="30" height="30" viewBox="0 0 37.037 30">
  <g id="noun-cart-1150797" transform="translate(-114.798 -84.557)">
    <path id="Path_3" data-name="Path 3" d="M252.966,397.6a3.765,3.765,0,1,0,3.765,3.765A3.741,3.741,0,0,0,252.966,397.6Zm0,5.378a1.614,1.614,0,1,1,1.614-1.614A1.585,1.585,0,0,1,252.966,402.978Z" transform="translate(-124.286 -290.572)" fill="#0f4a8a"/>
    <path id="Path_4" data-name="Path 4" d="M415.366,397.6a3.765,3.765,0,1,0,3.765,3.765A3.741,3.741,0,0,0,415.366,397.6Zm0,5.378a1.614,1.614,0,1,1,1.614-1.614A1.585,1.585,0,0,1,415.366,402.978Z" transform="translate(-274.462 -290.572)" fill="#0f4a8a"/>
    <path id="Path_5" data-name="Path 5" d="M151.834,90.312v-.247c0-.041,0-.041-.044-.082,0-.041,0-.041-.044-.082,0-.041-.044-.041-.044-.082s-.044-.041-.044-.082-.044-.041-.044-.041l-.088-.082c-.044,0-.044-.041-.088-.041s-.044-.041-.088-.041-.044-.041-.088-.041H122.117l-1.146-4.316a.84.84,0,0,0-.838-.616h-4.453a.824.824,0,1,0,0,1.644h3.7l5.115,19.112a.84.84,0,0,0,.838.616h20.282a.9.9,0,0,0,.838-.575l5.291-14.8v-.123c.088-.082.088-.082.088-.123Zm-6.79,13.933H126.085l-3.527-13.153h27.2Z" transform="translate(0 0)" fill="#0f4a8a"/>
  </g>
</svg>
