<svg xmlns="http://www.w3.org/2000/svg" width="15.338" height="19.282" viewBox="0 0 15.338 19.282">
  <g id="Group_2981" data-name="Group 2981" transform="translate(-219.022 -36)">
    <path id="Path_8" data-name="Path 8" d="M130.784,93.533a.237.237,0,0,1-.208-.1l-5.339-6.98a6.993,6.993,0,0,1,0-8.464,6.994,6.994,0,0,1,11.094,0,6.993,6.993,0,0,1,0,8.464l-5.339,6.98a.322.322,0,0,1-.208.1Zm0-17.761a6.377,6.377,0,0,0-5.13,2.526,6.447,6.447,0,0,0,0,7.839l5.13,6.693,5.13-6.693a6.446,6.446,0,0,0-5.13-10.365Z" transform="translate(95.906 -38.751)" fill="#0f4a8a" stroke="#0f4a8a" stroke-miterlimit="10" stroke-width="1"/>
    <path id="Path_9" data-name="Path 9" d="M190.832,146.583A4.167,4.167,0,1,1,195,142.416,4.179,4.179,0,0,1,190.832,146.583Zm0-7.813a3.646,3.646,0,1,0,3.646,3.646A3.657,3.657,0,0,0,190.832,138.77Z" transform="translate(35.858 -98.937)" fill="#0f4a8a" stroke="#0f4a8a" stroke-miterlimit="10" stroke-width="1"/>
  </g>
</svg>
