<svg xmlns="http://www.w3.org/2000/svg" width="30" height="30" viewBox="0 0 31.756 30.509">
  <path id="noun-wishlist-4626919" d="M147.713,81.332c-2.973-3.274-8.255-4.489-13.012.356-2.7-2.744-5.975-3.793-9.045-2.888a9.371,9.371,0,0,0-6.26,6.9,11.47,11.47,0,0,0,3.019,10.441L132.8,107.589a2.518,2.518,0,0,0,3.8,0L147,96.14c4.857-5.362,3.775-11.434.714-14.807Zm-1.551,13.886-10.4,11.451a1.412,1.412,0,0,1-2.131,0L123.249,95.218a9.991,9.991,0,0,1-2.713-9.181,8.122,8.122,0,0,1,5.424-5.976,6.748,6.748,0,0,1,1.923-.282,8.76,8.76,0,0,1,6.4,3.275.555.555,0,0,0,.837,0c4.287-4.726,9.1-3.728,11.758-.8s3.568,8.234-.715,12.963Z" transform="translate(-118.821 -78.198)" fill="#0f4a8a" stroke="#0f4a8a" stroke-width="0.5"/>
</svg>
