<svg xmlns="http://www.w3.org/2000/svg" width="16.152" height="14.933" viewBox="0 0 16.152 14.933">
  <path id="Path_5906" data-name="Path 5906" d="M93.557,31.23h-9.9l-.976-1.691a1.235,1.235,0,0,0-1.769-.4l-2.186,1.5a.384.384,0,0,0-.152.212,6.78,6.78,0,0,0,.176,3.551,17.06,17.06,0,0,0,1.7,3.979c1.32,2.286,3.489,4.919,5.618,5.456a.385.385,0,0,0,.259-.026l2.4-1.141a1.235,1.235,0,0,0,.539-1.732l-.345-.6h4.635a1.007,1.007,0,0,0,1.006-1.006v-7.1a1.007,1.007,0,0,0-1.006-1.006ZM84.022,32h8.915L88.09,35.322l-4.083-2.8A1.246,1.246,0,0,0,84.022,32Zm4.619,9.7a.438.438,0,0,1-.245.282L86.13,43.06c-1.544-.468-3.494-2.432-5.01-5.059s-2.214-5.216-1.839-6.8l2.068-1.424a.466.466,0,0,1,.667.151L83.214,32a.468.468,0,0,1-.161.631l-1.328.808a.384.384,0,0,0-.177.406,13.366,13.366,0,0,0,3.422,5.927.385.385,0,0,0,.44.05l1.364-.746a.468.468,0,0,1,.627.176l1.2,2.076a.437.437,0,0,1,.041.371Zm4.916-2.122h-5.08l-.41-.71a1.242,1.242,0,0,0-1.662-.466l-1.12.612a13.147,13.147,0,0,1-2.923-5.063l1.09-.664a1.2,1.2,0,0,0,.151-.108l4.27,2.927a.385.385,0,0,0,.435,0l5.486-3.761v7a.24.24,0,0,1-.237.237Z" transform="translate(-78.411 -28.919)"/>
</svg>
