<svg xmlns="http://www.w3.org/2000/svg" width="17.16" height="16.199" viewBox="0 0 17.16 16.199">
  <g id="noun-faq-2718218" transform="translate(-148.316 -97.395)">
    <path id="Path_5796" data-name="Path 5796" d="M248.52,175.361q.482,0,.482.432a.594.594,0,0,1-.1.344,2.123,2.123,0,0,1-.3.337,4.315,4.315,0,0,0-.3.315,1.216,1.216,0,0,0-.2.351,1.385,1.385,0,0,0-.082.5h.942a.752.752,0,0,1,.134-.45,2.945,2.945,0,0,1,.418-.443,2.931,2.931,0,0,0,.5-.531,1.076,1.076,0,0,0,.17-.624,1.1,1.1,0,0,0-.411-.914,1.768,1.768,0,0,0-1.127-.326,1.609,1.609,0,0,0-1.19.432,1.651,1.651,0,0,0-.439,1.2l.971.007q.007-.631.538-.631Z" transform="translate(-94.447 -73.62)"/>
    <path id="Path_5797" data-name="Path 5797" d="M268.441,265.731a.583.583,0,0,0-.609-.609.583.583,0,0,0-.436.17.662.662,0,0,0,0,.882.579.579,0,0,0,.432.174.588.588,0,0,0,.439-.174A.606.606,0,0,0,268.441,265.731Z" transform="translate(-113.816 -160.576)"/>
    <path id="Path_5798" data-name="Path 5798" d="M428.507,303.9H426.88a.236.236,0,0,0,0,.471h1.627a.236.236,0,0,0,0-.471Z" transform="translate(-266.525 -197.722)"/>
    <path id="Path_5799" data-name="Path 5799" d="M392.682,347.34h-3.2a.236.236,0,1,0,0,.471h3.2a.236.236,0,0,0,0-.471Z" transform="translate(-230.7 -239.335)"/>
    <path id="Path_5800" data-name="Path 5800" d="M462.683,390.77h-.127a.236.236,0,1,0,0,.471h.127a.236.236,0,0,0,0-.471Z" transform="translate(-300.7 -280.938)"/>
    <path id="Path_5801" data-name="Path 5801" d="M365.12,390.77h-3.213a.236.236,0,1,0,0,.471h3.213a.236.236,0,1,0,0-.471Z" transform="translate(-204.285 -280.938)"/>
    <path id="Path_5802" data-name="Path 5802" d="M164.783,112.491l-.541-1.309a5.73,5.73,0,0,0-4.135-9.132c-.128-.01-.246-.015-.36-.017a5.712,5.712,0,0,0-5.6-4.537c-.166,0-.317.006-.461.017a5.737,5.737,0,0,0-5.26,5.4,5.8,5.8,0,0,0,.044,1.113,5.711,5.711,0,0,0,1.081,2.622l-.542,1.312a.417.417,0,0,0,.546.543l1.34-.553a5.653,5.653,0,0,0,3.149,1.007,5.317,5.317,0,0,0,.595,1.594c.037.067.077.137.124.211s.081.128.122.187a5.642,5.642,0,0,0,.58.73c.056.06.111.116.161.164s.1.1.152.147a5.51,5.51,0,0,0,.6.48c.052.037.1.072.158.1a1.15,1.15,0,0,0,.143.09c.059.038.121.075.179.106s.132.072.21.112.175.089.273.13l.194.082c.091.038.187.073.279.1.14.047.289.092.439.131a.711.711,0,0,0,.086.021,4.1,4.1,0,0,0,.463.087c.081.012.161.023.242.031a.48.48,0,0,0,.05.006c.046,0,.092.009.13.011s.069,0,.09.005c.114.008.227.01.338.01.076,0,.152,0,.227,0,.189-.008.353-.022.5-.042a.7.7,0,0,0,.071-.011,5.725,5.725,0,0,0,2.449-.954l1.343.554a.417.417,0,0,0,.543-.544h0Zm-13.858-5.048a.235.235,0,0,0-.09.018l-1.34.554.543-1.315a.236.236,0,0,0-.032-.235,5.242,5.242,0,0,1-1.069-2.506,5.319,5.319,0,0,1-.04-1.023,5.264,5.264,0,0,1,4.827-4.953c.132-.011.271-.016.424-.016a5.246,5.246,0,0,1,5.179,4.342v0q.03.162.049.327a5.168,5.168,0,0,1,.033.672q0,.17-.016.342c-.012.151-.031.3-.056.445-.01.06-.024.119-.036.178-.017.083-.034.166-.055.247s-.044.156-.068.234c-.018.057-.035.115-.055.171-.031.091-.066.18-.1.268-.016.038-.031.076-.048.114-.044.1-.09.2-.14.3l-.032.061c-.058.109-.118.217-.184.322h0a5.364,5.364,0,0,1-1.7,1.7l-.043.028c-.1.059-.2.115-.3.168l-.087.045c-.094.047-.191.092-.288.134l-.113.047c-.094.038-.19.074-.287.106-.042.014-.085.027-.128.04-.1.03-.194.058-.292.082-.05.012-.1.021-.151.032-.088.019-.176.038-.265.052-.14.022-.282.04-.426.051-.1,0-.2.009-.306.009a5.169,5.169,0,0,1-3.167-1,.235.235,0,0,0-.138-.045ZM162.957,112a.235.235,0,0,0-.228.027,5.259,5.259,0,0,1-2.356.947l-.026.005a.219.219,0,0,1-.03,0c-.136.019-.282.031-.457.038a5.192,5.192,0,0,1-.531,0c-.021,0-.043,0-.073,0s-.081-.006-.137-.012l-.024,0c-.076-.007-.151-.018-.231-.03a3.913,3.913,0,0,1-.432-.081c-.02,0-.037-.009-.059-.014-.142-.037-.28-.078-.415-.124-.083-.026-.166-.057-.244-.089l-.2-.084c-.078-.033-.154-.07-.242-.116-.062-.032-.123-.064-.187-.1s-.1-.058-.17-.1a.921.921,0,0,1-.111-.071l-.02-.013c-.046-.027-.09-.057-.137-.09a5.048,5.048,0,0,1-.553-.442c-.045-.041-.088-.082-.137-.132s-.1-.1-.15-.152a5.16,5.16,0,0,1-.536-.674c-.039-.056-.076-.115-.117-.18s-.073-.122-.107-.183a5.308,5.308,0,0,1-.36-.788,5.366,5.366,0,0,1-.17-.582l.045,0c.159-.012.318-.031.477-.057.076-.012.15-.029.225-.044s.126-.022.188-.037l.05-.014c.087-.021.172-.046.257-.072.07-.021.139-.041.208-.065.084-.029.168-.06.25-.092.065-.025.129-.052.192-.079q.128-.055.252-.117c.055-.027.109-.056.163-.085.089-.048.177-.1.263-.148.04-.024.079-.05.118-.075.1-.061.192-.124.284-.191l.045-.035a5.815,5.815,0,0,0,1.468-1.585l.014-.021c.068-.11.132-.222.192-.337l.042-.08c.053-.1.1-.207.148-.314.019-.043.037-.087.055-.13.039-.1.076-.191.11-.289.022-.062.04-.125.06-.188.026-.084.052-.168.074-.254s.041-.179.059-.27c.013-.065.029-.128.04-.194.027-.16.048-.322.061-.485.009-.114.014-.228.016-.341,0-.036,0-.071,0-.107q0-.118,0-.234c0-.04,0-.079-.006-.119,0-.077-.011-.153-.019-.228,0-.036-.007-.073-.011-.109,0-.015,0-.03,0-.045.075,0,.154.007.236.014A5.258,5.258,0,0,1,163.787,111a.236.236,0,0,0-.033.236l.544,1.315Z" transform="translate(0 0)" stroke="#000" stroke-width="0.2"/>
  </g>
</svg>
