<svg xmlns="http://www.w3.org/2000/svg" width="16.212" height="9.949" viewBox="0 0 16.212 9.949">
  <path id="Path_5907" data-name="Path 5907" d="M104.7,128.8a1.111,1.111,0,0,0-1.105,1.105v7.738a1.111,1.111,0,0,0,1.105,1.105h14a1.111,1.111,0,0,0,1.105-1.105v-7.738A1.111,1.111,0,0,0,118.7,128.8Zm.225.737H118.48l-6.437,5.59a.593.593,0,0,1-.679,0Zm-.593.461,4.537,3.944-4.537,3.633Zm14.738,0v7.576l-4.537-3.633Zm-9.638,4.433,1.445,1.255a1.26,1.26,0,0,0,1.647,0l1.445-1.255,4.468,3.581H104.968l4.468-3.581Z" transform="translate(-103.598 -128.8)"/>
</svg>
