<svg xmlns="http://www.w3.org/2000/svg" width="9.77" height="16.695" viewBox="0 0 9.77 16.695">
  <g id="Group_8148" data-name="Group 8148" transform="translate(19022.25 -15638.8)">
    <path id="Path_5843" data-name="Path 5843" d="M258.233,109.38h-8.351a.51.51,0,0,0-.509.509v15.276a.51.51,0,0,0,.509.509h8.351a.51.51,0,0,0,.509-.509V109.889A.51.51,0,0,0,258.233,109.38Zm-8.351.2h8.351a.306.306,0,0,1,.306.306v2.139h-8.962v-2.139a.306.306,0,0,1,.306-.306Zm8.657,13.24h-8.962V112.232h8.962Zm-.306,2.648h-8.351a.306.306,0,0,1-.306-.306v-2.139h8.962v2.139a.306.306,0,0,1-.306.306Z" transform="translate(-19271.422 15529.62)" stroke="#000" stroke-width="0.4"/>
    <path id="Path_5844" data-name="Path 5844" d="M332.5,140h1.63v.2H332.5Z" transform="translate(-19350.68 15500.426)" stroke="#000" stroke-width="0.4"/>
    <path id="Path_5845" data-name="Path 5845" d="M335.4,414.862a.713.713,0,1,1,.713-.713A.714.714,0,0,1,335.4,414.862Zm0-1.222a.509.509,0,1,0,.509.509A.51.51,0,0,0,335.4,413.64Z" transform="translate(-19352.766 15239.721)" stroke="#000" stroke-width="0.4"/>
  </g>
</svg>
