<svg xmlns="http://www.w3.org/2000/svg" width="16.377" height="15.22" viewBox="0 0 16.377 15.22">
  <g id="noun-phone-1347196" transform="translate(-152.79 -107.199)">
    <path id="Path_5918" data-name="Path 5918" d="M154.13,115.346a2.723,2.723,0,0,0,.39.229.113.113,0,0,0,.108-.006l3.562-2.242a.113.113,0,0,0,.047-.129l-.434-1.356a7.373,7.373,0,0,1,6.233,0l-.432,1.35a.129.129,0,0,0-.005.037.112.112,0,0,0,.052.095l3.555,2.244a.111.111,0,0,0,.108.006,2.625,2.625,0,0,0,.393-.231,2.657,2.657,0,0,0,.329-.279,2.594,2.594,0,0,0,.173-3.485c-.06-.063-.118-.124-.179-.185s-.122-.119-.187-.18a10.057,10.057,0,0,0-14.037.18,2.6,2.6,0,0,0,0,3.676,2.709,2.709,0,0,0,.324.277Zm-.167-3.794a9.833,9.833,0,0,1,13.726-.175c.061.058.121.116.181.175s.117.12.171.176a2.369,2.369,0,0,1-.165,3.177,2.446,2.446,0,0,1-.3.256,2.343,2.343,0,0,1-.3.184l-3.429-2.165.436-1.363a.112.112,0,0,0-.058-.135,7.595,7.595,0,0,0-6.6,0,.112.112,0,0,0-.058.135l.438,1.366-3.435,2.163a2.468,2.468,0,0,1-.3-.182,2.561,2.561,0,0,1-.3-.254,2.376,2.376,0,0,1,0-3.359Z" transform="translate(-0.005 -1)" stroke="#000" stroke-width="0.5"/>
    <path id="Path_5919" data-name="Path 5919" d="M162.111,225.162v-1.318a.112.112,0,1,0-.224,0v1.315h-1.945v-1.315a.112.112,0,1,0-.224,0v1.318a6.8,6.8,0,0,0-6.679,6.787v.781a.112.112,0,0,0,.112.112h15.526a.112.112,0,0,0,.112-.112v-.781a6.8,6.8,0,0,0-6.678-6.788Zm6.454,7.457h-15.3v-.669a6.574,6.574,0,0,1,6.567-6.567H162a6.574,6.574,0,0,1,6.566,6.567Z" transform="translate(0 -110.674)" stroke="#000" stroke-width="0.5"/>
    <path id="Path_5920" data-name="Path 5920" d="M282.473,283.02a2.812,2.812,0,1,0,2.812,2.811A2.815,2.815,0,0,0,282.473,283.02Zm0,5.4a2.588,2.588,0,1,1,2.588-2.588A2.591,2.591,0,0,1,282.473,288.419Z" transform="translate(-121.558 -167.59)" stroke="#000" stroke-width="0.5"/>
  </g>
</svg>
