<svg xmlns="http://www.w3.org/2000/svg" width="26" height="26" viewBox="0 0 26 26">
  <g id="Group_8308" data-name="Group 8308" transform="translate(-1053 -681)">
    <g id="Group_6754" data-name="Group 6754" transform="translate(805.5 -946.5)">
      <circle id="Ellipse_3" data-name="Ellipse 3" cx="13" cy="13" r="13" transform="translate(247.5 1627.5)" fill="#fff"/>
    </g>
    <path id="Path_6020" data-name="Path 6020" d="M92.583,20.271l3.345-3.345a1.635,1.635,0,1,0-2.312-2.312l-3.345,3.345-3.345-3.345a1.635,1.635,0,1,0-2.312,2.312l3.345,3.345-3.345,3.345a1.645,1.645,0,0,0,0,2.312,1.613,1.613,0,0,0,1.149.478,1.592,1.592,0,0,0,1.149-.478l3.358-3.345,3.345,3.345a1.613,1.613,0,0,0,1.149.478,1.592,1.592,0,0,0,1.149-.478,1.645,1.645,0,0,0,0-2.312Z" transform="translate(975.541 673.658)" fill="#0f4a8a"/>
  </g>
</svg>
