<svg xmlns="http://www.w3.org/2000/svg" width="15.59" height="16.298" viewBox="0 0 15.59 16.298">
  <path id="Path_5224" data-name="Path 5224" d="M172.677,87.76l-.066-.055a1.117,1.117,0,0,0-.6-.252V83.709h.177a.532.532,0,0,0,.531-.531V81.051a.532.532,0,0,0-.531-.531h-1.764c.037-.027.075-.054.11-.085A1.865,1.865,0,0,0,171.3,79.1a.177.177,0,0,0-.1-.155,2.644,2.644,0,0,0-1.387-.165,2.073,2.073,0,0,0-1.165.575,1.231,1.231,0,0,0-1.06-.6h-.354a1.23,1.23,0,0,0-1.061.6,2.074,2.074,0,0,0-1.165-.574,2.645,2.645,0,0,0-1.387.165.177.177,0,0,0-.1.155,1.866,1.866,0,0,0,.763,1.338c.036.031.073.058.11.085h-1.764a.532.532,0,0,0-.531.531v2.126a.532.532,0,0,0,.531.531h.177v4.6h-.711c-.473,0-1.056.607-1.415,1.043v-.5a.887.887,0,0,0-.886-.886h-1.417a.887.887,0,0,0-.886.886v5.315a.887.887,0,0,0,.886.886h1.417a.887.887,0,0,0,.886-.886v-.352a2.715,2.715,0,0,0,.957.181c.471,0,1.325.005,2.177.005.68,0,1.357,0,1.837-.008l.22,0a5.157,5.157,0,0,0,4.243-1.721,29.6,29.6,0,0,0,2.722-2.941,1.124,1.124,0,0,0-.156-1.564Zm-3.5-6.885.071,0,.09,0h2.851a.177.177,0,0,1,.177.177v2.126a.177.177,0,0,1-.177.177h-3.012Zm-2.772-1.207a.879.879,0,0,1,.823-.565h.354a.88.88,0,0,1,.823.565.766.766,0,0,0-.1.343v.13a.715.715,0,0,0,.114.379h-2.037a.717.717,0,0,0,.114-.38v-.128a.766.766,0,0,0-.1-.343Zm-.417,1.206h2.834v2.48h-2.834Zm2.834,2.834v6.023h-.354V83.709h.354Zm-2.834,0h.354V88.8a.97.97,0,0,0-.354-.269Zm-3.366-.354a.177.177,0,0,1-.177-.177V81.051a.177.177,0,0,1,.177-.177h2.851l.09,0,.071,0v2.479Zm9.931,5.746a29.252,29.252,0,0,1-2.688,2.905,4.868,4.868,0,0,1-4,1.626l-.221,0c-1.077.013-3.162.006-4.008,0a2.326,2.326,0,0,1-.958-.213V89.928c.363-.509,1.039-1.27,1.415-1.27h2.813c.012,0,1.238.016,1.238.585,0,.661,0,.731-2.159,1.987a.177.177,0,0,0,.178.306,8.161,8.161,0,0,0,2.122-1.451h2.9a.177.177,0,0,0,.124-.051l2.051-2.016a.765.765,0,0,1,1.028-.042l.066.055a.767.767,0,0,1,.107,1.068Z" transform="translate(-157.489 -78.748)" fill="#177b04"/>
</svg>
