<svg xmlns="http://www.w3.org/2000/svg" width="15.171" height="20.76" viewBox="0 0 15.171 20.76">
  <path id="Path_6095" data-name="Path 6095" d="M150,4.125a1.6,1.6,0,0,0-1.6,1.6V23.289a1.6,1.6,0,0,0,1.6,1.6h11.971a1.6,1.6,0,0,0,1.6-1.6V10.02a.4.4,0,0,0-.112-.277l-5.289-5.5a.4.4,0,0,0-.288-.122H150Zm0,.8h7.183v5.19a.4.4,0,0,0,.4.4h5.19V23.289a.8.8,0,0,1-.8.8H150a.8.8,0,0,1-.8-.8V5.72a.8.8,0,0,1,.8-.8Zm7.981.279,4.342,4.511h-4.342Zm-2.158,4.88a1.311,1.311,0,0,0-.334.042c-.313.078-.816.384-.672,1.551a8.118,8.118,0,0,0,.532,1.88c-.151.471-.318.964-.483,1.449-.155.457-.316.929-.459,1.373h0c-.115.357-.22.694-.319,1.014-.139.447-.265.852-.389,1.219-2.134,1.212-2.987,2.262-3.039,2.907a.664.664,0,0,0,.281.626.776.776,0,0,0,.444.125,1.786,1.786,0,0,0,.786-.221,4.528,4.528,0,0,0,2.181-2.886c.41-.224.874-.459,1.4-.7a11.237,11.237,0,0,1,2.13-.758,3.186,3.186,0,0,0,2.094,1.194c.741,0,1.264-.245,1.434-.672a.844.844,0,0,0-.257-.936,2.861,2.861,0,0,0-2.035-.557,6.611,6.611,0,0,0-.95.1,14.079,14.079,0,0,1-1.974-3.311c.5-1.623.687-2.684.228-3.182a.8.8,0,0,0-.6-.256Zm-.006.8h.021c.014.017.16.23-.1,1.329a4.837,4.837,0,0,1-.126-.631c-.059-.479.026-.667.073-.679a.554.554,0,0,1,.134-.019Zm.015,3.76a14.167,14.167,0,0,0,1.475,2.388,12.682,12.682,0,0,0-1.889.706q-.37.171-.706.339l.139-.445c.1-.317.2-.652.317-1.006h0c.141-.439.3-.907.455-1.361q.109-.321.21-.621Zm3.35,2.887a2.708,2.708,0,0,1,1.228.209.567.567,0,0,1,.252.2,1.011,1.011,0,0,1-.685.16,1.861,1.861,0,0,1-1.123-.553c.116-.01.225-.015.327-.016Zm-5.972,2.32a3.014,3.014,0,0,1-1.4,1.486,1.435,1.435,0,0,1-.321.122,4.864,4.864,0,0,1,1.717-1.608Z" transform="translate(-148.397 -4.125)" fill="#0f4a8a"/>
</svg>
