<svg xmlns="http://www.w3.org/2000/svg" width="19.282" height="19.288" viewBox="0 0 19.282 19.288">
  <g id="Group_467" data-name="Group 467" transform="translate(-37 -460)">
    <path id="noun-filter-4679149" d="M112.635,41.986a.567.567,0,0,0-.423.942l7.228,8.078v9.7a.567.567,0,0,0,.884.473l3.409-2.27h0a.568.568,0,0,0,.251-.473V51.006l7.228-8.078a.567.567,0,0,0-.423-.942Zm1.269,1.135h15.615l-6.524,7.286h0a.567.567,0,0,0-.147.381v7.345l-2.274,1.512V50.788a.566.566,0,0,0-.147-.381Z" transform="translate(-75.07 418.014)" fill="#232a35"/>
  </g>
</svg>
