<svg xmlns="http://www.w3.org/2000/svg" width="20" height="19.079" viewBox="0 0 20 19.079">
  <path id="Path_5262" data-name="Path 5262" d="M248.578,239.891l-6.064-.881-2.712-5.493a.7.7,0,0,0-1.251,0l-2.712,5.493-6.064.881a.7.7,0,0,0-.385,1.187l4.386,4.274-1.034,6.041a.7.7,0,0,0,1.011.732l5.429-2.851,5.424,2.851a.671.671,0,0,0,.325.079.693.693,0,0,0,.408-.135.705.705,0,0,0,.278-.681l-1.034-6.041,4.386-4.274a.694.694,0,0,0,.176-.714.711.711,0,0,0-.566-.468Zm-5.234,4.724a.69.69,0,0,0-.2.617l.858,5.011-4.5-2.364a.707.707,0,0,0-.649,0l-4.5,2.364.858-5.011a.708.708,0,0,0-.2-.617l-3.639-3.547,5.03-.732a.7.7,0,0,0,.524-.38l2.258-4.557,2.248,4.557a.7.7,0,0,0,.524.38l5.03.732Z" transform="translate(-229.179 -233.127)" fill="#043f7d"/>
</svg>
