<svg xmlns="http://www.w3.org/2000/svg" width="20.732" height="17.024" viewBox="0 0 20.732 17.024">
  <path id="Path_5304" data-name="Path 5304" d="M136.1,100.566a.612.612,0,0,1-.612.612h-8.869a.612.612,0,1,1,0-1.224h8.869a.612.612,0,0,1,.612.612Zm-9.481-2.638h6.731a.612.612,0,1,0,0-1.224h-6.731a.612.612,0,0,0-.612.612h0a.612.612,0,0,0,.612.612Zm14.8-2.352v6.506c-.011.943.016,2.334-.746,3.1s-2.15.745-3.1.764h-3.037l-3.015,2.639a.617.617,0,0,1-.8.007l-3.137-2.646H124.55c-.951-.01-2.351.017-3.113-.746s-.736-2.163-.746-3.114V95.571c.008-.948-.023-2.346.74-3.109s2.163-.739,3.118-.753H137.57c.94.023,2.316.016,3.074.773s.753,2.134.777,3.077c0,.005,0,.011,0,.016Zm-1.234.016c-.031-1.173-.09-1.911-.416-2.237s-1.058-.384-2.224-.412H124.559c-1.191.017-1.936.07-2.257.391s-.369,1.056-.379,2.241v6.5c.014,1.188.065,1.928.385,2.248s1.061.371,2.251.384h3.246a.618.618,0,0,1,.4.146l2.9,2.45,2.791-2.443a.618.618,0,0,1,.406-.153h3.244c1.187-.023,1.931-.08,2.253-.4s.371-1.053.385-2.23V95.592Z" transform="translate(-120.69 -91.709)" fill="#0b2138"/>
</svg>
