<svg xmlns="http://www.w3.org/2000/svg" width="28" height="28" viewBox="0 0 28 28">
  <g id="Group_3252" data-name="Group 3252" transform="translate(-92 -322)">
    <path id="Path_4851" data-name="Path 4851" d="M14,0A14,14,0,1,1,0,14,14,14,0,0,1,14,0Z" transform="translate(92 322)" fill="#0f4a8a"/>
    <g id="noun-edit-882839" transform="translate(-222.526 197.223)">
      <path id="Path_2868" data-name="Path 2868" d="M256.879,143.9l-2.975,1.757.193-3.452,6.242-10.192a.234.234,0,0,1,.322-.079l2.374,1.464a.234.234,0,0,1,.079.322Zm0,0" transform="translate(70)" fill="none" stroke="#fff" stroke-linecap="round" stroke-linejoin="round" stroke-width="1"/>
      <path id="Path_2869" data-name="Path 2869" d="M358.008,165.144l2.773,1.7" transform="translate(-28.661 -31.507)" fill="none" stroke="#fff" stroke-linecap="round" stroke-linejoin="round" stroke-width="1"/>
      <path id="Path_2870" data-name="Path 2870" d="M257.768,329l2.773,1.7" transform="translate(66.338 -186.796)" fill="none" stroke="#fff" stroke-linecap="round" stroke-linejoin="round" stroke-width="1"/>
    </g>
  </g>
</svg>
