<svg xmlns="http://www.w3.org/2000/svg" width="25" height="24" viewBox="0 0 25 24">
  <g id="Group_2780" data-name="Group 2780" transform="translate(0.42 -0.131)">
    <g id="Group_2729" data-name="Group 2729">
      <rect id="Rectangle_799" data-name="Rectangle 799" width="25" height="24" rx="4" transform="translate(-0.42 0.131)" fill="#0b2138"/>
    </g>
    <path id="Path_93" data-name="Path 93" d="M139.4,76.032a2.91,2.91,0,0,1-4.115-4.115l2.286-2.286a2.914,2.914,0,0,1,4.115,0,.485.485,0,1,1-.686.686,1.925,1.925,0,0,0-2.743,0L135.966,72.6a1.94,1.94,0,1,0,2.743,2.743l2.172-2.172h0a.485.485,0,1,1,.686.686Zm4.344-4.344a2.914,2.914,0,0,1-4.115,0h0A.485.485,0,1,1,140.31,71a1.925,1.925,0,0,0,2.743,0l2.286-2.286a1.94,1.94,0,0,0-2.743-2.743l-2.172,2.172a.485.485,0,1,1-.686-.686l2.172-2.172a2.91,2.91,0,1,1,4.115,4.115l-2.286,2.286Z" transform="translate(-129.11 -58.529)" fill="#fff"/>
  </g>
</svg>
