<svg xmlns="http://www.w3.org/2000/svg" width="24" height="24" viewBox="0 0 24 24">
  <g id="Group_2782" data-name="Group 2782" transform="translate(0.195 -0.131)">
    <g id="Group_2781" data-name="Group 2781" transform="translate(0)">
      <rect id="Rectangle_799" data-name="Rectangle 799" width="24" height="24" rx="4" transform="translate(-0.195 0.131)" fill="#b40909"/>
    </g>
    <g id="noun-e-mail-3766917" transform="translate(3.308 5.514)">
      <path id="Path_94" data-name="Path 94" d="M113.475,117.3H96.865a.615.615,0,0,1-.615-.615V105.615a.615.615,0,0,1,.615-.615h16.61a.615.615,0,0,1,.615.615v11.073a.615.615,0,0,1-.615.615Zm-15.995-1.23h15.38V106.23H97.48Z" transform="translate(-96.25 -105)" fill="#fff"/>
      <path id="Path_95" data-name="Path 95" d="M113.578,120.79a.616.616,0,0,1-.363-.117l-8-5.844a.616.616,0,0,1,.726-1l7.635,5.58,7.635-5.58a.616.616,0,0,1,.726,1l-8,5.844a.616.616,0,0,1-.363.117Z" transform="translate(-104.657 -113.408)" fill="#fff"/>
    </g>
  </g>
</svg>
