<svg xmlns="http://www.w3.org/2000/svg" width="15.748" height="23.622" viewBox="0 0 15.748 23.622">
  <path id="Path_5486" data-name="Path 5486" d="M174.843,25.456s7.2-8.233,7.2-12.582a7.874,7.874,0,0,0-15.748,0c0,4.349,7.2,12.586,7.2,12.586a.853.853,0,0,0,1.353,0Zm-.678-8.645a3.937,3.937,0,1,0-3.937-3.937A3.937,3.937,0,0,0,174.164,16.811Zm-7.612,8.924c0,1.751,3.409,2.887,7.612,2.887s7.612-1.136,7.612-2.887c0-1.173-1.446-2.032-3.727-2.525a.525.525,0,0,0-.222,1.026c1.822.394,2.9,1.034,2.9,1.5,0,.859-2.936,1.837-6.562,1.837s-6.562-.979-6.562-1.837c0-.473,1.1-1.118,2.953-1.5a.525.525,0,1,0-.211-1.028c-2.311.475-3.792,1.34-3.792,2.526Z" transform="translate(-166.29 -5)" fill="#0b2138" fill-rule="evenodd"/>
</svg>
