<svg xmlns="http://www.w3.org/2000/svg" width="18.257" height="18.257" viewBox="0 0 18.257 18.257">
  <path id="Path_5141" data-name="Path 5141" d="M122.628,44.8a.867.867,0,0,0-.869.869v1.2a7.333,7.333,0,0,0-1.291.53l-.842-.842a.868.868,0,0,0-1.229,0l-1.841,1.841a.867.867,0,0,0,0,1.229l.842.842a7.318,7.318,0,0,0-.53,1.291h-1.2a.867.867,0,0,0-.869.869v2.608a.867.867,0,0,0,.869.869h1.2a7.332,7.332,0,0,0,.53,1.291l-.842.842a.867.867,0,0,0,0,1.229l1.841,1.841a.868.868,0,0,0,1.229,0l.842-.842a7.318,7.318,0,0,0,1.291.53v1.2a.867.867,0,0,0,.869.869h2.608a.867.867,0,0,0,.869-.869v-1.2a7.332,7.332,0,0,0,1.284-.53l.842.842a.868.868,0,0,0,1.229,0l1.848-1.841a.867.867,0,0,0,0-1.229l-.849-.849A7.345,7.345,0,0,0,131,56.1h1.2a.867.867,0,0,0,.869-.869V52.626a.867.867,0,0,0-.869-.869H131a7.356,7.356,0,0,0-.537-1.284l.849-.849a.867.867,0,0,0,0-1.229l-1.848-1.841a.868.868,0,0,0-1.229,0l-.842.842a7.322,7.322,0,0,0-1.284-.53v-1.2a.867.867,0,0,0-.869-.869Zm1.3,4.782a4.347,4.347,0,1,1-4.347,4.347,4.354,4.354,0,0,1,4.347-4.347Zm0,.869a3.478,3.478,0,1,0,3.478,3.478A3.471,3.471,0,0,0,123.932,50.452Z" transform="translate(-114.803 -44.801)" fill="#0b2138"/>
</svg>
