<svg xmlns="http://www.w3.org/2000/svg" width="19.028" height="19.008" viewBox="0 0 19.028 19.008">
  <path id="Path_5670" data-name="Path 5670" d="M-1085.72,372.938c.079-.093.152-.193.239-.279q1.747-1.733,3.5-3.463c.27-.267.435-.267.707,0q2.726,2.725,5.45,5.451c.052.052.092.114.176.22a1.9,1.9,0,0,1,.158-.222q2.007-2.012,4.019-4.019a2.221,2.221,0,0,1,3.328.167,2.226,2.226,0,0,1-.159,2.962c-.581.592-1.172,1.175-1.759,1.761q-1.149,1.149-2.3,2.3a1.4,1.4,0,0,1-.147.113l-.034.082a.874.874,0,0,1,.19.112q2.715,2.709,5.426,5.423c.314.314.314.458,0,.773l-3.465,3.5a.435.435,0,0,1-.714,0l-5.462-5.492c-.043-.044-.079-.1-.132-.159-.07.067-.123.115-.173.166-.976.976-1.95,1.955-2.932,2.926a1.171,1.171,0,0,1-.4.255c-1.3.491-2.605.972-3.908,1.458a.427.427,0,0,1-.5-.048.423.423,0,0,1-.049-.5c.488-1.309.969-2.62,1.459-3.928a1.075,1.075,0,0,1,.234-.369q1.464-1.478,2.94-2.945c.048-.048.1-.088.221-.187a1.4,1.4,0,0,1-.233-.147q-2.717-2.694-5.429-5.393c-.091-.091-.169-.195-.253-.292Zm12.657.388-9.151,9.151,2.031,2.031,9.152-9.15Zm-3.179,2.017-.842-.838-1.06,1.06c-.171.171-.338.345-.514.51a.344.344,0,0,1-.429.05.322.322,0,0,1-.182-.355.608.608,0,0,1,.159-.282c.5-.512,1.015-1.016,1.5-1.5l-1.048-1.077c-.09.1-.182.2-.277.293-.253.255-.5.512-.764.76a.361.361,0,0,1-.518,0,.363.363,0,0,1-.006-.518c.048-.056.1-.107.156-.159l.9-.893-1.131-1.127c-.225.227-.464.468-.7.708-.289.289-.575.581-.87.864a.363.363,0,0,1-.518,0,.373.373,0,0,1-.006-.52c.044-.051.1-.1.143-.145l1.422-1.421-.832-.838-3.056,3.134,5.335,5.438Zm7.348,7.345-1.125-1.126c-.032.03-.077.071-.12.114-.3.3-.6.605-.907.905a.36.36,0,0,1-.407.1.311.311,0,0,1-.231-.3.6.6,0,0,1,.144-.341c.326-.347.669-.678,1-1.005l-1.145-1.146a1.248,1.248,0,0,1-.113.148q-.7.7-1.406,1.405a.371.371,0,0,1-.63-.078.378.378,0,0,1,.112-.452q.706-.7,1.406-1.4c.047-.047.092-.1.123-.129l-.836-.835-3.147,3.149,5.418,5.328,3.144-3.067-.751-.746-1.458,1.462c-.246.246-.467.282-.64.1s-.129-.387.11-.625Zm-.239-9.163a1.576,1.576,0,0,0,.668-1.753,1.407,1.407,0,0,0-1.2-1.048,1.6,1.6,0,0,0-1.551.716Zm-3.366-.77,2.044,2.059.743-.746-2.05-2.049Zm-10.168,10.431c-.173.466-.349.928-.513,1.394a.244.244,0,0,0,.054.2c.211.226.438.437.651.661a.178.178,0,0,0,.227.043c.346-.133.693-.261,1.04-.391l.326-.124Zm-.514,2.643-.327-.369-.209.568Z" transform="translate(1085.72 -368.995)" fill="#0f275c"/>
</svg>
