<svg xmlns="http://www.w3.org/2000/svg" width="19.32" height="20.5" viewBox="0 0 19.32 20.5">
  <g id="Group_7982" data-name="Group 7982" transform="translate(0.25 0.25)">
    <path id="Path_5717" data-name="Path 5717" d="M132.526,38.667l-6.584.029a1.651,1.651,0,0,0-1.2.529,1.865,1.865,0,0,0-.493,1.269l-.021,7.048h0a.255.255,0,0,0,.065.181l9.731,10.42a1.622,1.622,0,0,0,2.386,0l6.04-6.468a1.856,1.856,0,0,0,0-2.509l-9.731-10.42.156.361c-.049-.052-.273-.441-.344-.44Zm-.1.515,9.644,10.333a1.354,1.354,0,0,1,0,1.813L136.036,57.8a1.1,1.1,0,0,1-1.646,0l-9.659-10.348.029-6.954a1.345,1.345,0,0,1,.355-.921,1.134,1.134,0,0,1,.834-.37l6.475-.022Zm-4.742,1.682a1.379,1.379,0,0,0-1.008.442,1.553,1.553,0,0,0,0,2.1,1.376,1.376,0,0,0,2.016,0,1.553,1.553,0,0,0,0-2.1,1.379,1.379,0,0,0-1.008-.442Zm0,.5a.876.876,0,0,1,.638.29,1.053,1.053,0,0,1,0,1.407.842.842,0,0,1-1.269,0,1.053,1.053,0,0,1,0-1.407A.862.862,0,0,1,127.682,41.365Z" transform="translate(-124.224 -38.667)" fill="#0f275c" stroke="#0f275c" stroke-width="0.5"/>
    <text id="_" data-name="`" transform="translate(6.71 13.769)" fill="#0f275c" font-size="10" font-family="SegoeUI, Segoe UI"><tspan x="0" y="0">`</tspan></text>
  </g>
</svg>
