<svg xmlns="http://www.w3.org/2000/svg" width="18.265" height="21.286" viewBox="0 0 18.265 21.286">
  <g id="Group_6775" data-name="Group 6775" transform="translate(0.5 0.5)">
    <path id="Path_4980" data-name="Path 4980" d="M138.609,20.728a.44.44,0,0,0-.43-.387h-2.987c-.172-2.622-1.913-4.663-4.019-4.663s-3.868,2.063-4.04,4.663h-2.987a.441.441,0,0,0-.43.408l-1.074,14.763a.528.528,0,0,0,.107.322.437.437,0,0,0,.322.129h16.4a.437.437,0,0,0,.322-.129.374.374,0,0,0,.107-.322Zm-7.435-3.976c1.5,0,2.751,1.483,2.944,3.481h-5.888c.194-2,1.44-3.481,2.944-3.481ZM128.208,24.1a.752.752,0,1,1,.752-.752A.761.761,0,0,1,128.208,24.1Zm5.824,0a.752.752,0,1,1,.752-.752A.761.761,0,0,1,134.031,24.1Z" transform="translate(-122.642 -15.678)" fill="none" stroke="#0f4a8a" stroke-width="1"/>
  </g>
</svg>
