<svg xmlns="http://www.w3.org/2000/svg" width="17.313" height="16.431" viewBox="0 0 17.313 16.431">
  <path id="noun-wishlist-4626919" d="M134.292,79.983c-1.578-1.738-4.382-2.383-6.908.189a4.791,4.791,0,0,0-4.8-1.533A4.974,4.974,0,0,0,119.26,82.3a6.089,6.089,0,0,0,1.6,5.542l5.513,6.079a1.337,1.337,0,0,0,2.019,0l5.518-6.079c2.578-2.847,2-6.07.379-7.86Zm-7.13,2.317V93.433c-.313.345,1.544.343,1.233,0V81c-1.335-1.472-.406,1.146,0-.525.376-1.544-7.051-.752-5.65-1.165a3.582,3.582,0,0,1,1.021-.149,4.65,4.65,0,0,1,3.4,1.739.295.295,0,0,0,.444,0c2.276-2.509-1.632-1.454-.221.1s2.05-1.208-.224,1.3Z" transform="translate(-118.837 -78.202)" fill="#0f4a8a" stroke="#0f4a8a" stroke-width="0.5"/>
</svg>
