<svg xmlns="http://www.w3.org/2000/svg" width="17.313" height="16.431" viewBox="0 0 17.313 16.431">
  <path id="noun-wishlist-4626919" d="M134.292,79.983c-1.578-1.738-4.382-2.383-6.908.189a4.791,4.791,0,0,0-4.8-1.533A4.974,4.974,0,0,0,119.26,82.3a6.089,6.089,0,0,0,1.6,5.542l5.513,6.079a1.337,1.337,0,0,0,2.019,0l5.518-6.079c2.578-2.847,2-6.07.379-7.86Zm-.823,7.371-5.518,6.079a.749.749,0,0,1-1.131,0l-5.513-6.079a5.3,5.3,0,0,1-1.44-4.874,4.311,4.311,0,0,1,2.879-3.172,3.582,3.582,0,0,1,1.021-.149,4.65,4.65,0,0,1,3.4,1.739.295.295,0,0,0,.444,0c2.276-2.509,4.831-1.979,6.242-.424s1.894,4.371-.38,6.881Z" transform="translate(-118.837 -78.202)" fill="#0f4a8a" stroke="#0f4a8a" stroke-width="0.5"/>
</svg>
