<svg xmlns="http://www.w3.org/2000/svg" width="21.746" height="28.66" viewBox="0 0 21.746 28.66">
  <g id="Group_7874" data-name="Group 7874" transform="translate(-895.142 -537)">
    <path id="Path_5666" data-name="Path 5666" d="M195.145,30.8A10.885,10.885,0,0,0,184.272,41.67c0,3.584,1.855,6.072,3.818,8.707l.086.115q2.089,2.8,4.181,5.6l2.347,3.141c0,.005.008.008.013.013h0a.575.575,0,0,0,.058.061c.01.009.019.019.031.028l.011.009s.015.007.023.012h0a.547.547,0,0,0,.113.058l.042.015a.537.537,0,0,0,.149.024h0a.539.539,0,0,0,.15-.024c.014,0,.028-.009.042-.015h0a.548.548,0,0,0,.113-.058c.007-.005.016-.007.023-.012l.011-.009c.011-.008.021-.019.031-.028h0a.568.568,0,0,0,.058-.061s.009-.008.013-.013l2.346-3.142,4.181-5.6.086-.115c1.964-2.634,3.818-5.122,3.818-8.707h0A10.885,10.885,0,0,0,195.145,30.8Zm6.172,18.921-.086.115q-2.089,2.8-4.18,5.6l-1.906,2.55-1.9-2.551q-2.091-2.8-4.18-5.6l-.088-.114c-1.931-2.591-3.6-4.829-3.6-8.046h0a9.771,9.771,0,0,1,19.542,0c0,3.216-1.666,5.455-3.6,8.046Z" transform="translate(710.87 506.203)" fill="#0f4a8a"/>
    <path id="Path_5667" data-name="Path 5667" d="M251.437,80.441l-6.874-5.185c-.008-.006-.017-.01-.026-.016a.519.519,0,0,0-.053-.032l-.044-.02c-.018-.007-.036-.014-.054-.019l-.048-.011a.529.529,0,0,0-.056-.008c-.019,0-.032,0-.048,0a.154.154,0,0,0-.033,0,.22.22,0,0,0-.026,0,.247.247,0,0,0-.045.007h0a.579.579,0,0,0-.059.014c-.015,0-.029.01-.043.016a.521.521,0,0,0-.055.025c-.015.008-.029.017-.043.026s-.021.011-.031.019l-6.874,5.184a.551.551,0,0,0-.22.441v1.38h0a.551.551,0,0,0,.551.551h1.087v4.777a1.79,1.79,0,0,0,1.788,1.788h8a1.79,1.79,0,0,0,1.788-1.788V82.813h1.089a.551.551,0,0,0,.551-.551V80.881a.55.55,0,0,0-.219-.44Zm-7.206,3.42h1.3v4.416h-2.609V83.861Zm6.323-2.15h-1.089a.551.551,0,0,0-.551.551v5.329a.687.687,0,0,1-.686.686h-1.589V83.809a1.052,1.052,0,0,0-1.051-1.051h-2.712a1.052,1.052,0,0,0-1.051,1.051v4.467h-1.591a.686.686,0,0,1-.686-.686V82.262a.551.551,0,0,0-.551-.551h-1.087v-.554l1.413-1.065a.006.006,0,0,0,.006,0l4.9-3.7,4.9,3.7,1.42,1.071Z" transform="translate(661.783 464.765)" fill="#0f4a8a"/>
  </g>
</svg>
