<svg xmlns="http://www.w3.org/2000/svg" width="44.587" height="26.923" viewBox="0 0 44.587 26.923">
  <path id="Path_5630" data-name="Path 5630" d="M102.246,128.794a.489.489,0,0,0-.428.489v3.928a.489.489,0,1,0,.978,0v-3.438h24.543V149.7H114.594a4.606,4.606,0,0,0-9.032,0H102.8v-4.921a.489.489,0,1,0-.978,0v5.41a.489.489,0,0,0,.489.489h3.163a4.608,4.608,0,0,0,9.215,0h15.053a4.608,4.608,0,0,0,9.215,0h1.8a.489.489,0,0,0,.489-.489v-9a8.323,8.323,0,0,0-1.773-4.982,6.031,6.031,0,0,0-4.707-2.506h-6.449v-4.417a.489.489,0,0,0-.489-.489H102.308a.463.463,0,0,0-.061,0Zm26.071,5.884h4.172v6.831a.489.489,0,0,0,.489.489h7.29v7.7h-1.406a4.606,4.606,0,0,0-9.032,0h-1.513Zm5.15,0h1.3a5.041,5.041,0,0,1,3.943,2.124,7.476,7.476,0,0,1,1.544,4.218h-6.785Zm-35.882,1.895a.494.494,0,1,0,.138.978h7.32a.489.489,0,1,0,0-.978h-7.32a.518.518,0,0,0-.092,0h-.046Zm3.7,3.866a.492.492,0,1,0,.107.978h3.652a.489.489,0,1,0,0-.978h-3.652a.507.507,0,0,0-.107,0Zm8.8,6.541a3.622,3.622,0,1,1-3.637,3.622A3.611,3.611,0,0,1,110.086,146.98Zm24.268,0a3.622,3.622,0,1,1-3.637,3.622A3.611,3.611,0,0,1,134.354,146.98Zm-24.268,1.757a1.864,1.864,0,1,0,1.864,1.864A1.874,1.874,0,0,0,110.086,148.737Zm24.268,0A1.864,1.864,0,1,0,136.2,150.6,1.874,1.874,0,0,0,134.354,148.737Zm-24.268.978a.886.886,0,1,1-.887.886A.881.881,0,0,1,110.086,149.715Zm24.268,0a.886.886,0,0,1,0,1.773.886.886,0,0,1,0-1.773Z" transform="translate(-96.909 -128.528)" fill="#0f4a8a" stroke="#0f4a8a" stroke-width="0.5"/>
</svg>
